<?xml version="1.0" standalone="no"?>
<!DOCTYPE svg PUBLIC "-//W3C//DTD SVG 20010904//EN"
 "http://www.w3.org/TR/2001/REC-SVG-20010904/DTD/svg10.dtd">
<svg version="1.0" xmlns="http://www.w3.org/2000/svg"
 width="411.000000pt" height="411.000000pt" viewBox="0 0 411.000000 411.000000"
 preserveAspectRatio="xMidYMid meet">
<metadata>
Created by potrace 1.14, written by Peter Selinger 2001-2017
</metadata>
<g transform="translate(0.000000,411.000000) scale(0.100000,-0.100000)"
fill="#000000" stroke="none">
<path d="M1991 2775 c-31 -36 -35 -55 -35 -165 0 -14 -10 -33 -23 -43 -13 -10
-23 -27 -23 -38 0 -11 -11 -24 -25 -31 -17 -8 -29 -24 -36 -52 -6 -23 -19 -50
-29 -61 -10 -11 -33 -45 -51 -75 l-34 -55 0 -170 c1 -189 5 -205 80 -309 32
-44 35 -54 35 -120 0 -39 7 -93 16 -121 17 -55 29 -159 28 -245 -1 -76 -21
-341 -27 -346 -8 -8 -37 8 -31 17 12 20 -8 28 -31 13 -20 -13 -59 -15 -232
-14 -283 2 -317 1 -309 -7 4 -4 22 -8 39 -9 18 0 68 -2 112 -4 l80 -4 -70 -6
c-51 -5 -25 -7 94 -7 107 0 159 3 150 9 -10 7 -1 8 26 4 22 -3 56 -2 75 2 24
5 44 3 65 -8 27 -13 30 -20 30 -60 0 -42 -2 -45 -30 -51 -16 -4 -46 -7 -65 -8
-28 -1 -45 -10 -74 -40 l-39 -40 -38 20 c-36 18 -41 18 -106 3 -37 -8 -71 -21
-75 -27 -9 -15 -7 -16 -152 107 -65 54 -115 101 -112 104 3 3 23 8 43 12 35 7
34 8 -19 9 -57 1 -58 1 -140 77 -121 112 -184 150 -269 164 -115 19 -275 -8
-392 -66 -37 -19 -70 -34 -75 -34 -4 0 -17 33 -29 74 -13 42 -42 102 -69 142
-45 67 -196 224 -215 224 -5 0 -9 -300 -9 -770 l0 -770 2055 0 2055 0 0 378
-1 377 -67 32 c-37 18 -80 36 -97 41 l-30 10 30 6 c17 4 38 11 47 17 21 11 91
12 84 1 -2 -4 4 -9 15 -9 10 -1 19 5 19 12 0 10 -18 15 -67 18 l-68 3 68 2
c38 1 66 6 63 11 -7 11 -137 2 -153 -11 -9 -7 -25 -5 -50 4 -22 9 -63 14 -98
13 -33 -2 -86 1 -118 7 -60 9 -117 3 -117 -12 0 -5 26 -11 58 -13 l57 -3 -62
-2 c-35 -1 -63 -6 -63 -12 0 -5 8 -10 18 -11 21 -1 -110 -47 -260 -90 -62 -18
-115 -36 -118 -40 -3 -4 -37 -15 -75 -25 -39 -10 -79 -23 -91 -31 -11 -7 -40
-15 -65 -17 -58 -6 -203 -40 -259 -62 -53 -20 -186 -22 -220 -4 -16 9 -19 14
-10 20 8 5 3 10 -18 15 -28 6 -30 8 -21 37 5 19 4 38 -2 50 -9 16 -7 26 8 47
11 14 28 48 39 75 10 27 27 51 37 54 20 5 22 18 5 25 -8 3 -6 6 4 6 9 1 22 9
28 19 11 16 11 16 6 0 -4 -13 0 -18 13 -18 10 0 21 -3 25 -7 4 -5 26 -9 49 -9
23 -1 74 -6 112 -12 43 -7 202 -9 415 -7 244 3 346 1 351 -7 8 -13 29 -2 29
17 0 15 -113 19 -498 16 -109 -1 -149 2 -170 13 -23 13 -24 15 -7 16 243 6
894 -3 950 -14 11 -2 49 0 85 5 36 4 93 9 128 10 l62 2 0 87 c0 96 -7 110 -56
109 -16 -1 -46 1 -66 3 -25 3 -38 0 -38 -8 0 -17 -48 -14 -55 4 -5 13 -7 13
-18 -2 -10 -14 -31 -17 -107 -19 -52 -1 -111 -1 -130 0 -19 1 -62 0 -94 -3
-46 -5 -61 -3 -67 9 -10 16 -67 16 -78 0 -5 -8 -303 -18 -378 -13 -34 2 -61 1
-91 -6 -44 -9 -59 7 -68 72 -5 43 -10 54 -21 50 -8 -3 -16 -6 -17 -6 -1 0 -1
-22 0 -50 1 -27 -2 -47 -7 -45 -4 3 -9 0 -11 -6 -2 -6 -46 -13 -108 -16 -58
-2 -109 -9 -115 -14 -14 -14 -31 -11 -17 3 17 17 15 104 -4 140 -14 28 -86
222 -101 273 -4 11 -16 34 -28 50 -43 60 -48 81 -39 142 12 88 6 306 -11 412
-9 51 -27 116 -40 145 -13 28 -29 66 -36 84 -17 48 -66 111 -94 122 -13 5 -31
23 -40 40 -15 29 -15 35 0 81 9 27 14 57 10 67 -4 9 -8 35 -10 58 -5 72 -40
104 -114 104 -32 0 -45 -6 -70 -35z m311 -1574 c32 -42 58 -86 58 -99 0 -13
-10 -52 -22 -87 -21 -61 -25 -64 -60 -70 -20 -4 -47 -3 -60 1 -13 4 -49 7 -80
6 l-57 -2 4 83 c2 45 11 118 19 162 9 44 16 94 16 112 0 18 5 43 12 57 l11 26
51 -56 c28 -31 77 -91 108 -133z m361 -248 c-7 -2 -19 -2 -25 0 -7 3 -2 5 12
5 14 0 19 -2 13 -5z m-1103 -13 c0 -5 -5 -10 -11 -10 -5 0 -7 5 -4 10 3 6 8
10 11 10 2 0 4 -4 4 -10z m1296 -9 c-3 -4 -28 -6 -56 -3 -30 3 -55 0 -64 -7
-10 -9 -16 -8 -26 4 -11 13 -3 15 69 15 45 0 80 -4 77 -9z m-560 -15 c1 0 -4
-30 -12 -66 -8 -36 -17 -98 -20 -137 -4 -40 -10 -73 -13 -73 -3 0 -44 22 -90
48 -53 29 -85 54 -87 66 -2 15 3 17 32 14 19 -2 34 0 34 4 0 4 -18 8 -40 8
l-40 0 0 46 c0 53 14 86 34 78 8 -3 17 0 22 7 5 9 2 10 -9 6 -9 -3 -19 -2 -22
4 -5 6 31 7 102 3 59 -4 109 -7 109 -8z m374 10 c0 -2 -7 -6 -15 -10 -8 -3
-15 -1 -15 4 0 6 7 10 15 10 8 0 15 -2 15 -4z m1143 -43 c-7 -2 -19 -2 -25 0
-7 3 -2 5 12 5 14 0 19 -2 13 -5z m54 1 c-3 -3 -12 -4 -19 -1 -8 3 -5 6 6 6
11 1 17 -2 13 -5z m50 -10 c-3 -3 -12 -4 -19 -1 -8 3 -5 6 6 6 11 1 17 -2 13
-5z m58 -4 c4 -6 -6 -10 -22 -10 -22 0 -25 2 -13 10 19 12 27 12 35 0z m-58
-16 c-3 -3 -12 -4 -19 -1 -8 3 -5 6 6 6 11 1 17 -2 13 -5z"/>
<path d="M2185 900 c-4 -6 7 -10 25 -10 18 0 29 4 25 10 -3 6 -15 10 -25 10
-10 0 -22 -4 -25 -10z"/>
<path d="M2170 760 c0 -5 5 -10 10 -10 6 0 10 5 10 10 0 6 -4 10 -10 10 -5 0
-10 -4 -10 -10z"/>
<path d="M4077 1674 c-4 -4 -57 -9 -119 -11 -64 -2 -115 -9 -119 -15 -7 -10
-40 -8 -88 8 -17 5 -22 4 -17 -4 5 -8 -3 -12 -23 -12 -17 0 -31 4 -31 9 0 15
-59 19 -64 4 -3 -7 -21 -13 -41 -13 -19 0 -35 -5 -35 -11 0 -5 -4 -7 -10 -4
-6 4 -10 -6 -10 -22 0 -39 29 -49 184 -60 84 -6 131 -13 134 -21 2 -7 8 -10
13 -6 13 7 7 -19 -6 -28 -5 -4 -62 -8 -125 -8 -134 0 -220 -9 -220 -22 0 -5 6
-8 13 -5 6 2 19 -2 28 -10 25 -21 323 -7 314 15 -4 11 2 13 30 10 19 -2 35 -1
35 2 0 4 12 5 28 4 15 -2 57 -5 95 -7 l67 -5 0 109 c0 84 -3 109 -13 109 -8 0
-17 -3 -20 -6z"/>
<path d="M3790 1660 c-13 -8 -13 -10 2 -10 9 0 20 5 23 10 8 13 -5 13 -25 0z"/>
<path d="M3216 1601 c-3 -5 -15 -11 -26 -14 -11 -3 -18 -2 -15 2 2 4 -2 8 -10
8 -8 0 -12 -4 -10 -8 5 -8 -11 -6 -35 4 -20 9 -179 4 -174 -5 2 -3 -4 -8 -13
-11 -15 -3 -14 -6 7 -15 23 -10 22 -11 -20 -13 -25 -1 -35 -4 -22 -6 12 -2 22
-11 22 -19 0 -18 116 -20 122 -2 3 8 9 8 23 0 13 -7 26 -7 37 -1 14 7 18 6 18
-6 0 -20 75 -21 83 -1 4 9 14 12 28 9 19 -5 21 -3 17 20 -4 21 -1 27 13 27 11
0 19 -4 19 -10 0 -5 10 -10 22 -10 21 0 21 0 2 14 -22 17 -20 19 26 33 33 10
30 11 -37 12 -39 1 -74 -3 -77 -8z"/>
<path d="M3490 1600 c0 -5 5 -10 10 -10 6 0 10 5 10 10 0 6 -4 10 -10 10 -5 0
-10 -4 -10 -10z"/>
<path d="M2868 1503 c7 -3 16 -2 19 1 4 3 -2 6 -13 5 -11 0 -14 -3 -6 -6z"/>
<path d="M3245 1470 c17 -7 15 -9 -12 -9 -64 -2 -33 -21 33 -21 71 0 78 12 16
30 -44 12 -65 12 -37 0z"/>
<path d="M3448 1443 c7 -3 16 -2 19 1 4 3 -2 6 -13 5 -11 0 -14 -3 -6 -6z"/>
<path d="M1528 1063 c7 -3 16 -2 19 1 4 3 -2 6 -13 5 -11 0 -14 -3 -6 -6z"/>
<path d="M4043 923 c15 -2 37 -2 50 0 12 2 0 4 -28 4 -27 0 -38 -2 -22 -4z"/>
<path d="M1730 900 c0 -5 5 -10 10 -10 6 0 10 5 10 10 0 6 -4 10 -10 10 -5 0
-10 -4 -10 -10z"/>
<path d="M2550 900 c0 -5 9 -10 20 -10 11 0 20 5 20 10 0 6 -9 10 -20 10 -11
0 -20 -4 -20 -10z"/>
<path d="M3918 903 c6 -2 18 -2 25 0 6 3 1 5 -13 5 -14 0 -19 -2 -12 -5z"/>
<path d="M3498 873 c7 -3 16 -2 19 1 4 3 -2 6 -13 5 -11 0 -14 -3 -6 -6z"/>
<path d="M1808 863 c7 -3 16 -2 19 1 4 3 -2 6 -13 5 -11 0 -14 -3 -6 -6z"/>
<path d="M2935 850 c27 -12 43 -12 25 0 -8 5 -22 9 -30 9 -10 0 -8 -3 5 -9z"/>
<path d="M4005 850 c-3 -5 -1 -10 4 -10 6 0 11 5 11 10 0 6 -2 10 -4 10 -3 0
-8 -4 -11 -10z"/>
<path d="M3158 843 c7 -3 16 -2 19 1 4 3 -2 6 -13 5 -11 0 -14 -3 -6 -6z"/>
<path d="M3251 846 c10 -9 79 -14 79 -5 0 5 -19 9 -42 9 -23 0 -39 -2 -37 -4z"/>
<path d="M2915 820 c3 -5 16 -10 28 -9 21 0 21 1 2 9 -28 12 -37 12 -30 0z"/>
<path d="M2618 813 c6 -2 18 -2 25 0 6 3 1 5 -13 5 -14 0 -19 -2 -12 -5z"/>
<path d="M2774 782 c7 -12 71 -13 98 -2 18 7 8 9 -40 9 -35 1 -61 -3 -58 -7z"/>
<path d="M2950 782 c31 -2 40 -6 30 -13 -10 -6 6 -8 47 -6 40 1 63 6 63 14 0
8 -27 11 -92 10 -51 -1 -73 -3 -48 -5z"/>
<path d="M3100 760 c0 -5 7 -10 16 -10 8 0 12 5 9 10 -3 6 -10 10 -16 10 -5 0
-9 -4 -9 -10z"/>
<path d="M2800 750 c-60 -7 -41 -14 30 -10 25 1 49 6 55 11 10 10 2 10 -85 -1z"/>
<path d="M3198 753 c7 -3 16 -2 19 1 4 3 -2 6 -13 5 -11 0 -14 -3 -6 -6z"/>
<path d="M3150 740 c-12 -8 -9 -10 13 -10 16 0 26 4 22 10 -8 12 -16 12 -35 0z"/>
<path d="M3018 723 c7 -3 16 -2 19 1 4 3 -2 6 -13 5 -11 0 -14 -3 -6 -6z"/>
<path d="M3005 691 c-16 -3 -25 -9 -19 -13 13 -9 54 1 54 13 0 5 -1 8 -2 8 -2
-1 -16 -4 -33 -8z"/>
<path d="M2893 673 c9 -2 23 -2 30 0 6 3 -1 5 -18 5 -16 0 -22 -2 -12 -5z"/>
</g>
</svg>
